<svg viewBox="0 0 361 561" xmlns="http://www.w3.org/2000/svg" fill-rule="evenodd" clip-rule="evenodd" stroke-linejoin="round" stroke-miterlimit="1.414">
  <path d="M148.17 397.726l16.995-10.874c10.2-6.53 20.398-13.062 30.596-19.595 24.608-15.766 49.21-31.537 73.817-47.304 3.178-2.035 6.352-4.077 9.536-6.103 4.597-2.9 9.72-4.945 15.047-6.017 1.955-.394 3.936-.657 5.926-.79.953-.062 1.907-.093 2.862-.098.24 0 .478 0 .716.004 1.512.022 3.022.113 4.524.284 3.173.36 6.308 1.056 9.334 2.076 4 1.348 7.804 3.263 11.267 5.675 5.496 3.828 10.125 8.896 13.437 14.72 1.994 3.505 3.51 7.28 4.493 11.193 1.21 4.812 1.62 9.82 1.21 14.765-.433 5.233-1.782 10.385-3.982 15.154-1.525 3.307-3.456 6.425-5.736 9.264-1.583 1.81-3.25 3.57-5.002 5.273l-.174.17-.13.123-.298.287-.395.376-.415.388-7.726 7.206-.354.33c-3.454 3.22-6.907 6.442-10.36 9.663l-26.015 24.267-15.75 14.693-.234.218-9.31 8.684-37.09 34.6-79.593 74.255c-1.106-.626-2.2-1.27-3.28-1.94l-.372-.233-.12-.076-.253-.16-.142-.09-.23-.146-.15-.097-.22-.143-.153-.1-.216-.14-.155-.103-.213-.14-.156-.105-.212-.14-.156-.106-.21-.142-.157-.106-.21-.143-.154-.107-.21-.144-.154-.107-.21-.147-.153-.106-.21-.15-.152-.106-.214-.152-.146-.104-.22-.16-.14-.1-.24-.174-.116-.085-.356-.262-.468-.348-.108-.08-.47-.356-.002-.002-.473-.364-.078-.06-.48-.375-.494-.39-.033-.027c-2.37-1.892-4.644-3.904-6.812-6.024l-.05-.05-.442-.435-.01-.01-.4-.4-.102-.104-.4-.404-.068-.07-.325-.335-.145-.152-.295-.308-.085-.09-.092-.096-.277-.292-.167-.18-.19-.202-.242-.26-.176-.193-.238-.26-.19-.21-.215-.238-.123-.136-.276-.312-.167-.19-.244-.278-.17-.194-.24-.278-.167-.194-.24-.28-.21-.25-.09-.107-.328-.39-.05-.06-.276-.336-.108-.13-.234-.287-.097-.118-.3-.376-.115-.144-.2-.252-.134-.17-.195-.25-.11-.142-.06-.077-.222-.285-.15-.195-.152-.2-.155-.204-.158-.21-.116-.154-.14-.188-.14-.187-.162-.22-.13-.177-.163-.223-.146-.202-.107-.146-.154-.214-.13-.18-.158-.223-.133-.19-.15-.212-.248-.356-.138-.2-.147-.214-.136-.2-.165-.243-.11-.164-.257-.384-.108-.164-.176-.265-.105-.16-.222-.34-.05-.08-.266-.412-.084-.13-.197-.312-.08-.13-.266-.426-.266-.432-.083-.136-.184-.303-.09-.15-.19-.318-.073-.123-.247-.42-.09-.156-.162-.277-.11-.19-.14-.247-.114-.197-.156-.277-.077-.137-.1-.184-.13-.232-.13-.233-.108-.198-.132-.242-.1-.186c-.16-.297-.32-.595-.476-.893l-.09-.17-.135-.26-.09-.173-.136-.265-.08-.156-.127-.253-.123-.244-.083-.167-.126-.255-.093-.19-.12-.25-.1-.202-.114-.238-.18-.376-.013-.027-.097-.206-.116-.248-.1-.212-.115-.25-.092-.2-.14-.307-.065-.145-.197-.44-.065-.15-.14-.315-.07-.166-.14-.318-.062-.148-.196-.46-.226-.54-.066-.165-.156-.38-.075-.186-.147-.364-.073-.184-.147-.374-.066-.17-.155-.4-.054-.143-.17-.452-.035-.092c-1.428-3.82-2.594-7.738-3.49-11.717l-.012-.06-.112-.505-.03-.14-.09-.427-.038-.175-.082-.394-.04-.193-.076-.383-.04-.197-.076-.4-.033-.176-.107-.57-.103-.58-.03-.18-.07-.403-.035-.206-.063-.384-.033-.203-.062-.4-.03-.183-.066-.45-.02-.13c-.088-.603-.17-1.207-.246-1.812l-.005-.043-.068-.56-.01-.07-.062-.55-.006-.057-.065-.59v-.007c-.237-2.27-.39-4.55-.453-6.834l-.002-.056-.014-.55v-.076l-.01-.55-.002-.06c-.01-.61-.01-1.218-.007-1.828v-.123l.005-.462.003-.183.006-.405.006-.205.01-.39.004-.208.013-.41.005-.182.022-.587.026-.58.01-.182.02-.403.01-.208.024-.382.012-.208.026-.39.013-.192.03-.426.013-.155.04-.522.005-.056c.05-.606.106-1.212.168-1.817l.005-.05.06-.55.006-.065.062-.55.006-.048c.142-1.218.308-2.433.5-3.645v-.003l.097-.6.003-.014c.166-1.01.35-2.015.55-3.018l.008-.037.11-.537.02-.1.102-.477.027-.127.1-.458.028-.132.105-.47.026-.11.13-.57.002-.006.14-.586.026-.105.113-.458.05-.196.094-.368.058-.223.09-.344.06-.232.09-.33.06-.228.097-.348.056-.205.115-.404.042-.148c.164-.57.333-1.137.508-1.703l.015-.052.162-.516.022-.068.16-.505.02-.063.17-.52.013-.04c1.012-3.054 2.188-6.054 3.522-8.983l.028-.06.213-.464.053-.113.19-.41.07-.145.178-.376.08-.166.173-.356.087-.177.172-.35.087-.177.183-.365.08-.156.263-.52.267-.513.08-.15.192-.366.087-.163.19-.354.085-.157.198-.365.077-.14.214-.385.065-.116.234-.42.046-.08.265-.465.02-.034c1.998-3.468 4.23-6.8 6.674-9.972l.03-.04.32-.413.093-.118.264-.334.127-.16.232-.29.15-.187.213-.263.163-.2.205-.25.194-.236.12-.144.24-.286.098-.117.336-.397.063-.074.276-.324.12-.14.227-.258.13-.15.228-.258.124-.14.292-.327.057-.063.346-.384.116-.127.24-.264.134-.145.234-.25.128-.14.276-.293.084-.09.36-.38.098-.1.27-.282.13-.132.24-.246.15-.155.182-.184c.732-.74 1.476-1.465 2.232-2.18.14-.134.282-.266.424-.4l19.992-18.642z" fill="#fff" fill-opacity=".8"/>
  <path d="M180.66 367.428l84.916-79.185c12.11-11.292 12.773-30.29 1.48-42.4-8.895-9.54-22.666-11.784-33.99-6.868 34.256-15.614 76.1-8.513 103.174 20.52 23.104 24.776 29.524 59.165 19.75 89.277-.14-2.355-.434-4.7-.885-7.016-.946-4.86-2.575-9.582-4.833-13.987-3.858-7.53-9.545-14.102-16.434-19.014-4.21-3-8.86-5.375-13.76-7.027-3.563-1.202-7.253-2.022-10.988-2.446-1.86-.21-3.73-.318-5.603-.338-.375 0-.75 0-1.124.004-1.968.03-3.933.162-5.886.406-4.124.515-8.186 1.515-12.076 2.978-2.243.844-4.43 1.842-6.538 2.984-1.032.56-2.042 1.154-3.036 1.777-.48.308-.963.615-1.443.92-16.66 10.666-33.31 21.346-49.966 32.02-14.25 9.132-28.503 18.264-42.756 27.393z" fill="#fff"/>
  <path d="M180.815 281.373l-85.99 80.187c-12.11 11.292-12.772 30.29-1.48 42.4 7.823 8.39 19.68 11.32 30.046 8.553-33.476 13.356-73.185 5.723-99.23-22.206C1.06 365.532-5.362 331.145 4.41 301.034c.307 5.132 1.356 10.216 3.12 15.048 1.996 5.467 4.904 10.59 8.567 15.113 3.53 4.36 7.747 8.16 12.46 11.205 5.184 3.35 10.955 5.773 16.975 7.138 4.233.96 8.584 1.4 12.924 1.308 4.354-.093 8.695-.72 12.895-1.87 3.41-.934 6.726-2.21 9.88-3.805 1.606-.81 3.164-1.708 4.68-2.675.253-.164.506-.33.758-.496.21-.143.423-.285.633-.43l93.515-60.197z" fill="#fff" fill-opacity=".8"/>
  <path d="M310.815 0c1.1.625 2.19 1.268 3.265 1.937l.372.232.12.075.25.16.142.09.228.146.15.097.22.142.153.1.215.14.154.102.213.14.155.104.21.14.157.106.21.142.154.105.21.142.153.106.21.145.153.106.21.145.15.107.21.148.15.106.214.152.146.105.22.158.137.1.24.175.116.085.354.26.474.354.106.08.47.357.028.02.46.356.073.056.488.38.012.01.495.394.022.017c1.89 1.51 3.717 3.098 5.478 4.756l.008.006.476.45.45.434.053.052.445.435.418.413.104.105.387.388.02.022.058.057.336.343.15.155.296.304.084.088.113.118.26.27.178.19.243.26.12.126.402.434.255.28.167.18.23.256.19.212.214.24.208.234.197.224.227.26.177.203.26.302.143.166.4.473.33.395.097.116.247.3.09.11.315.386.084.106.234.29.12.15.214.27.106.133.286.366.134.173.173.223.146.19.176.228.112.148.115.153.163.216.158.213.138.185.16.216.146.197.116.16.15.206.13.18.16.223.128.178.16.222.244.347.15.214.134.196.148.213.145.21.132.194.25.37.123.182.28.42.19.29.083.124.26.4.094.146.187.292.09.142.247.39.02.033.266.425.077.125.193.314.085.14.222.365.043.07.256.43.084.142.172.293.1.17.162.28.095.163.235.41.1.174.144.257.12.214.122.22.123.224.118.215.114.208.106.2.108.2.134.25.097.182.135.255.092.176.137.262.06.116.142.278.13.257.085.165.13.262.09.178.13.26.09.18.12.25.097.197.1.203.113.238.1.212.11.233.108.227.102.218.143.308.056.123.057.123.145.32.084.185.125.28.08.182.14.313.062.144.195.453.043.1.155.364.065.154.116.277.125.302.093.23.128.314.087.215.138.345.073.185.16.408.047.122c.356.92.696 1.845 1.02 2.775l.006.013.19.55.006.016.187.55.002.008c.63 1.885 1.198 3.792 1.702 5.715v.003l.146.56.008.032.136.536.01.046.13.53.012.046.13.545.005.028c.135.576.264 1.153.387 1.732l.016.074.1.48.037.178.076.38.042.217.067.34.044.235.062.326.044.238.063.35.04.226.066.373.033.2.078.465.02.106.094.594.002.007.088.576.017.114.07.475.02.134.064.462.018.13.064.482.013.102.068.544.004.038c.124 1.015.23 2.032.32 3.05l.002.014.05.604v.005c.1 1.223.174 2.446.223 3.67l.002.05.02.553.002.065.016.553.002.05c.016.61.025 1.217.03 1.825v1.161l-.003.193-.004.39-.003.208-.007.383-.004.21-.01.402-.006.182-.018.582-.023.582-.008.18-.018.405-.01.208-.02.383-.012.207-.023.39-.01.193-.03.426-.01.153-.038.52-.004.06c-.046.605-.098 1.21-.157 1.816l-.004.05-.056.55-.007.065-.06.55-.004.048c-.135 1.22-.294 2.434-.478 3.646v.003l-.094.6v.014c-.16 1.01-.34 2.016-.533 3.02l-.007.038-.107.537-.02.1-.098.48-.026.126-.098.457-.028.133-.103.47-.024.11-.128.57-.002.007-.136.586-.026.106-.11.46-.048.195-.09.37-.058.223-.087.343-.06.234-.084.32-.06.233-.09.335-.06.214-.102.372-.05.175-.133.472-.02.072c-.163.57-.332 1.136-.506 1.7l-.01.028-.166.534-.014.046-.166.52-.015.044-.172.526-.01.03-.182.55v.002c-.638 1.883-1.337 3.746-2.098 5.582l-.003.008-.224.537-.007.017-.227.534-.007.014c-.39.906-.793 1.805-1.212 2.698l-.055.118-.188.396-.086.18-.16.333-.1.207-.15.306-.11.22-.147.294-.114.226-.146.287-.113.222-.154.3-.106.204-.17.328-.093.173-.203.38-.062.12-.266.49-.003.006c-1.983 3.636-4.22 7.135-6.688 10.462l-.014.02-.325.435-.07.09-.273.363-.106.14-.24.312-.132.17-.217.28-.152.192-.202.257-.163.206-.196.244-.193.24-.116.145-.236.287-.096.118-.33.4-.063.075-.273.325-.12.14-.22.262-.13.15-.223.26-.12.14-.29.333-.054.063-.34.387-.115.13-.237.264-.13.146-.23.255-.127.14-.27.296-.084.09-.355.385-.094.1-.267.286-.127.134-.237.248-.15.157-.178.184c-.72.747-1.453 1.48-2.197 2.203-.277.27-.557.536-.838.802l-.424.398L213.76 250.652 82.87 334.91c-1.264.867-2.565 1.676-3.908 2.414-2.71 1.488-5.573 2.693-8.53 3.59-3.622 1.1-7.382 1.74-11.164 1.902-3.767.162-7.553-.148-11.244-.922-5.12-1.073-10.043-3.043-14.484-5.806-4.1-2.552-7.776-5.77-10.863-9.484-3.16-3.804-5.688-8.127-7.44-12.752-1.96-5.164-2.948-10.684-2.92-16.206.03-5.783 1.176-11.552 3.37-16.903 1.544-3.76 3.602-7.308 6.102-10.514.13-.17.263-.338.397-.505 1.996-2.28 4.126-4.483 6.39-6.595l4.48-4.18C81.498 213.787 310.816 0 310.816 0z" fill="#fff"/>
</svg>
