<svg viewBox="0 0 361 561" xmlns="http://www.w3.org/2000/svg" fill-rule="evenodd" clip-rule="evenodd" stroke-linejoin="round" stroke-miterlimit="1.414">
  <path d="M791.306 530.867l16.995-10.874c10.2-6.53 20.4-13.062 30.597-19.595 24.607-15.766 49.21-31.537 73.816-47.304 3.178-2.035 6.352-4.077 9.536-6.103 4.596-2.9 9.718-4.944 15.046-6.016 1.955-.394 3.936-.657 5.926-.79.953-.062 1.907-.093 2.862-.098.24 0 .478 0 .716.004 1.512.023 3.022.114 4.524.285 3.173.36 6.308 1.056 9.334 2.076 4 1.35 7.804 3.264 11.267 5.676 5.497 3.828 10.126 8.896 13.438 14.72 1.994 3.505 3.51 7.28 4.493 11.193 1.21 4.81 1.62 9.82 1.21 14.764-.433 5.233-1.782 10.385-3.982 15.154-1.525 3.307-3.456 6.425-5.736 9.264-1.583 1.81-3.25 3.568-5.002 5.272l-.174.17-.13.123-.298.287-.395.376-.416.39-7.726 7.205-.354.33c-3.454 3.22-6.907 6.442-10.36 9.663l-26.015 24.267-15.75 14.693-.235.218-9.31 8.684-37.09 34.6-79.592 74.256c-1.106-.626-2.2-1.27-3.28-1.94l-.372-.233-.12-.076-.252-.16-.142-.09-.23-.146-.15-.096-.22-.143-.153-.1-.216-.14-.156-.102-.212-.14-.156-.105-.212-.14-.156-.106-.21-.142-.157-.106-.21-.144-.155-.107-.21-.145-.154-.107-.21-.147-.153-.105-.21-.15-.15-.106-.215-.153-.146-.104-.22-.16-.14-.1-.24-.174-.116-.086-.356-.262-.468-.35-.108-.08-.47-.355-.002-.002-.473-.364-.077-.06-.48-.374-.494-.39-.034-.027c-2.37-1.893-4.644-3.905-6.812-6.025l-.05-.05-.442-.435-.01-.01-.4-.4-.102-.103-.4-.404-.068-.07-.325-.335-.146-.152-.294-.308-.085-.09-.09-.096-.278-.293-.167-.18-.19-.203-.24-.26-.177-.193-.238-.26-.19-.21-.215-.238-.122-.136-.276-.31-.168-.19-.245-.28-.168-.193-.24-.278-.168-.195-.24-.28-.21-.25-.092-.107-.327-.39-.05-.06-.275-.336-.107-.13-.234-.288-.097-.118-.302-.376-.114-.143-.2-.252-.133-.17-.196-.25-.11-.142-.06-.077-.22-.285-.15-.194-.153-.2-.156-.204-.157-.21-.116-.155-.14-.188-.14-.188-.163-.22-.13-.178-.163-.223-.145-.2-.106-.147-.155-.214-.13-.182-.157-.222-.133-.19-.15-.212-.247-.356-.138-.2-.147-.214-.136-.2-.166-.243-.11-.163-.256-.384-.108-.164-.176-.266-.105-.16-.22-.34-.052-.08-.265-.412-.084-.132-.197-.31-.08-.13-.267-.427-.266-.432-.083-.135-.183-.303-.09-.152-.19-.317-.074-.123-.247-.42-.09-.155-.162-.277-.11-.19-.14-.247-.114-.196-.156-.277-.077-.137-.102-.183-.13-.232-.128-.233-.11-.2-.13-.24-.1-.187c-.16-.297-.32-.595-.477-.893l-.09-.17-.135-.262-.09-.172-.135-.265-.08-.156-.127-.253-.123-.244-.083-.166-.127-.255-.093-.19-.122-.25-.098-.203-.115-.238-.18-.377-.013-.027-.098-.206-.116-.247-.1-.212-.115-.25-.09-.2-.14-.306-.066-.145-.197-.44-.066-.152-.138-.314-.072-.166-.138-.318-.063-.147-.197-.46-.226-.54-.067-.165-.156-.38-.075-.186-.148-.365-.073-.184-.148-.374-.066-.17-.155-.402-.053-.142-.17-.452-.036-.092c-1.427-3.82-2.593-7.74-3.488-11.718l-.013-.06-.113-.505-.03-.14-.092-.428-.037-.176-.082-.394-.04-.194-.076-.383-.04-.197-.076-.4-.033-.176-.106-.572-.103-.58-.03-.18-.07-.402-.034-.206-.063-.385-.033-.203-.062-.4-.03-.183-.066-.448-.02-.13c-.088-.604-.17-1.208-.246-1.813l-.005-.044-.067-.56-.01-.07-.062-.55-.005-.057-.064-.592v-.006c-.236-2.272-.388-4.552-.452-6.835l-.002-.056-.014-.55v-.075l-.01-.55-.002-.06c-.01-.61-.01-1.218-.007-1.828v-.123l.005-.462.003-.184.007-.405.005-.205.01-.39.004-.208.013-.408.004-.183.022-.588.026-.582.01-.18.02-.404.01-.208.024-.382.012-.208.026-.39.013-.192.03-.426.012-.154.04-.522.004-.056c.05-.606.106-1.212.168-1.817l.005-.048.058-.552.007-.064.062-.55.006-.048c.142-1.218.308-2.433.5-3.645v-.003l.097-.6.002-.013c.165-1.01.35-2.015.55-3.018l.007-.038.11-.538.02-.1.1-.477.028-.127.1-.457.03-.132.104-.47.025-.11.132-.57v-.005l.142-.586.024-.106.113-.458.05-.196.093-.367.058-.223.09-.343.06-.232.09-.33.06-.228.097-.348.057-.206.115-.404.04-.147c.165-.57.334-1.137.51-1.703l.014-.05.163-.517.022-.068.16-.505.02-.062.17-.52.014-.04c1.01-3.054 2.187-6.054 3.52-8.983l.03-.06.212-.464.053-.112.192-.41.068-.145.18-.376.08-.166.172-.355.086-.177.172-.35.088-.177.183-.364.08-.156.263-.518.266-.514.08-.15.192-.366.087-.164.19-.354.086-.157.2-.365.076-.14.214-.386.065-.116.235-.418.046-.082.265-.464.02-.034c2-3.47 4.23-6.802 6.675-9.973l.032-.042.32-.412.092-.118.263-.334.127-.16.232-.29.15-.187.213-.263.164-.2.204-.25.194-.236.12-.144.24-.286.098-.117.336-.396.063-.074.277-.323.12-.14.227-.258.13-.15.227-.26.123-.138.292-.328.057-.063.345-.383.117-.127.24-.263.134-.145.234-.252.128-.138.276-.294.084-.09.36-.38.098-.1.27-.282.13-.132.24-.246.15-.155.182-.184c.732-.74 1.476-1.466 2.232-2.182.14-.133.282-.265.424-.398l19.992-18.643z" fill="url(#a)" transform="translate(-643.136 -133.14)"/>
  <path d="M823.797 500.57l84.915-79.186c12.11-11.292 12.773-30.29 1.48-42.4-8.895-9.54-22.666-11.784-33.99-6.868 34.256-15.614 76.1-8.513 103.174 20.52 23.104 24.776 29.524 59.165 19.75 89.277-.14-2.355-.434-4.7-.885-7.016-.945-4.86-2.574-9.582-4.832-13.987-3.858-7.53-9.545-14.1-16.434-19.013-4.21-3-8.86-5.375-13.76-7.027-3.563-1.2-7.253-2.02-10.988-2.445-1.86-.21-3.73-.318-5.603-.338-.375 0-.75 0-1.124.004-1.97.032-3.934.163-5.887.407-4.124.515-8.186 1.515-12.076 2.978-2.244.844-4.43 1.842-6.54 2.984-1.03.558-2.04 1.153-3.035 1.776-.48.308-.963.615-1.443.92-16.66 10.666-33.312 21.346-49.967 32.02-14.25 9.132-28.503 18.264-42.756 27.393z" fill="url(#b)" transform="translate(-643.136 -133.14)"/>
  <path d="M823.95 414.514L737.963 494.7c-12.11 11.293-12.773 30.292-1.48 42.4 7.822 8.39 19.678 11.32 30.045 8.554-33.477 13.356-73.186 5.723-99.23-22.206-23.103-24.775-29.524-59.162-19.75-89.273.306 5.132 1.355 10.216 3.118 15.048 1.997 5.467 4.905 10.59 8.568 15.113 3.53 4.36 7.747 8.16 12.46 11.205 5.184 3.35 10.955 5.774 16.975 7.14 4.233.96 8.584 1.4 12.924 1.307 4.354-.093 8.695-.72 12.895-1.87 3.41-.934 6.725-2.21 9.88-3.805 1.605-.812 3.163-1.71 4.678-2.676.254-.164.507-.33.76-.496.21-.142.422-.284.632-.43l93.514-60.196z" fill="url(#c)" transform="translate(-643.136 -133.14)"/>
  <path d="M953.95 133.14c1.102.626 2.192 1.27 3.266 1.938l.372.232.12.076.25.16.142.09.228.146.15.096.22.142.153.1.216.14.154.103.213.14.155.104.21.14.157.106.21.142.155.105.21.143.153.106.21.144.153.106.21.146.15.107.21.148.15.107.214.152.146.104.22.158.137.1.24.174.116.085.353.262.474.353.105.08.47.357.028.02.46.355.073.056.488.38.013.01.495.394.022.017c1.89 1.51 3.717 3.098 5.478 4.756l.008.007.476.45.45.434.053.053.446.435.42.413.103.106.387.388.02.022.058.057.336.343.15.155.296.305.084.088.113.118.258.272.18.19.242.258.12.127.4.434.256.28.167.182.23.255.19.212.214.238.208.235.197.224.226.26.177.203.26.303.143.166.4.472.33.394.097.116.247.3.09.11.315.385.085.106.234.29.12.15.214.27.106.133.286.366.134.172.173.223.145.19.176.228.112.148.115.153.164.216.157.212.137.185.16.215.146.197.116.16.15.205.13.18.16.223.128.18.16.22.244.348.15.214.134.195.148.213.145.21.133.195.25.37.123.182.28.42.192.29.082.124.26.4.094.147.187.292.09.14.248.39.02.034.266.425.076.124.193.314.084.14.222.365.043.07.255.43.085.142.172.293.1.17.162.28.095.163.234.41.1.175.144.257.12.213.122.22.123.224.118.214.115.208.107.2.108.198.134.25.097.183.136.255.092.176.137.262.06.116.143.277.13.256.085.165.13.263.09.178.13.26.09.182.12.248.097.198.1.203.113.24.1.21.11.234.108.227.103.22.143.307.056.123.057.124.144.32.084.185.125.28.08.18.14.314.062.144.196.453.044.1.155.365.064.154.116.276.125.302.094.23.127.314.086.214.138.345.074.186.16.408.047.122c.357.92.697 1.845 1.022 2.775l.005.014.19.55.005.016.187.552v.007c.632 1.884 1.2 3.79 1.703 5.714v.003l.146.56.007.032.135.535.01.046.13.53.012.047.13.545.005.027c.134.575.263 1.152.386 1.73l.016.075.1.48.037.178.075.38.043.217.067.34.045.236.062.326.044.237.063.348.04.227.065.373.034.2.077.465.018.106.095.593.002.007.088.577.017.114.07.476.02.134.063.463.018.13.064.482.013.102.07.544.003.04c.124 1.014.23 2.03.32 3.05l.002.013.05.604v.005c.1 1.222.174 2.445.223 3.67l.002.05.02.552.003.065.016.552.002.05c.016.608.025 1.216.03 1.824V212.108l-.003.193-.004.39-.004.21-.007.382-.005.208-.01.403-.005.182-.018.582-.023.582-.01.18-.017.404-.01.208-.02.382-.012.207-.022.392-.01.192-.03.426-.01.154-.038.52-.004.06c-.046.605-.098 1.21-.157 1.816l-.005.05-.055.55-.007.066-.06.55-.004.048c-.136 1.22-.295 2.434-.48 3.646v.004l-.093.6-.002.014c-.16 1.01-.338 2.016-.532 3.02l-.007.038-.107.537-.02.1-.1.48-.025.126-.097.456-.028.133-.103.468-.025.112-.128.57-.002.006-.136.586-.026.105-.11.46-.048.195-.09.368-.058.224-.087.343-.06.234-.085.322-.06.232-.09.335-.06.213-.102.372-.05.175-.133.473-.02.072c-.164.57-.333 1.136-.507 1.7l-.01.028-.166.534-.014.046-.166.52-.015.044-.173.526-.01.03-.183.55v.002c-.638 1.883-1.337 3.746-2.098 5.582l-.003.008-.224.537-.008.016-.227.534-.006.013c-.39.906-.794 1.805-1.213 2.698l-.056.118-.187.397-.086.18-.16.333-.102.208-.15.306-.11.22-.146.294-.115.226-.145.287-.113.223-.155.3-.106.204-.17.328-.093.173-.203.38-.062.12-.266.49-.003.006c-1.984 3.636-4.22 7.135-6.69 10.462l-.013.02-.326.435-.068.092-.274.362-.106.14-.24.312-.132.17-.217.28-.152.192-.2.257-.164.206-.196.245-.193.24-.117.145-.236.288-.096.118-.33.4-.063.075-.272.326-.12.14-.22.262-.13.15-.223.26-.12.14-.29.333-.054.064-.34.387-.115.13-.236.265-.13.146-.23.256-.127.14-.272.296-.083.09-.355.384-.095.1-.267.286-.126.133-.238.248-.15.157-.178.185c-.72.747-1.453 1.48-2.197 2.203-.278.27-.558.536-.84.802l-.423.4-114.158 106.453-130.89 84.257c-1.264.868-2.565 1.677-3.908 2.415-2.71 1.488-5.573 2.693-8.53 3.59-3.622 1.1-7.382 1.74-11.164 1.902-3.767.162-7.553-.148-11.244-.922-5.12-1.073-10.043-3.043-14.484-5.806-4.1-2.553-7.776-5.772-10.863-9.485-3.16-3.804-5.688-8.127-7.44-12.752-1.96-5.164-2.948-10.684-2.92-16.206.03-5.783 1.176-11.552 3.37-16.903 1.544-3.76 3.602-7.308 6.102-10.514.13-.17.264-.337.398-.504 1.996-2.28 4.126-4.483 6.39-6.595l4.48-4.178c48.44-45.165 277.758-258.95 277.758-258.95z" fill="url(#d)" transform="translate(-643.136 -133.14)"/>
  <defs>
    <radialGradient id="a" cx="0" cy="0" r="1" gradientUnits="userSpaceOnUse" gradientTransform="matrix(0 507.695 -386.178 0 827.555 152.27)">
      <stop offset="0" stop-color="#1CFFA5"/>
      <stop offset="1" stop-color="#00216B"/>
    </radialGradient>
    <radialGradient id="b" cx="0" cy="0" r="1" gradientUnits="userSpaceOnUse" gradientTransform="matrix(0 507.695 -386.178 0 827.555 152.27)">
      <stop offset="0" stop-color="#1CFFA5"/>
      <stop offset="1" stop-color="#00216B"/>
    </radialGradient>
    <radialGradient id="c" cx="0" cy="0" r="1" gradientUnits="userSpaceOnUse" gradientTransform="matrix(0 507.695 -386.178 0 827.555 152.27)">
      <stop offset="0" stop-color="#1CFFA5"/>
      <stop offset="1" stop-color="#00216B"/>
    </radialGradient>
    <radialGradient id="d" cx="0" cy="0" r="1" gradientUnits="userSpaceOnUse" gradientTransform="matrix(0 507.695 -386.178 0 827.555 152.27)">
      <stop offset="0" stop-color="#1CFFA5"/>
      <stop offset="1" stop-color="#00216B"/>
    </radialGradient>
  </defs>
</svg>
